<?xml version="1.0" standalone="no"?>
<!DOCTYPE svg PUBLIC "-//W3C//DTD SVG 20010904//EN"
 "http://www.w3.org/TR/2001/REC-SVG-20010904/DTD/svg10.dtd">
<svg version="1.0" xmlns="http://www.w3.org/2000/svg"
 width="208.000000pt" height="208.000000pt" viewBox="0 0 208.000000 208.000000"
 preserveAspectRatio="xMidYMid meet">
<metadata>
Created by potrace 1.14, written by Peter Selinger 2001-2017
</metadata>
<g transform="translate(0.000000,208.000000) scale(0.100000,-0.100000)"
fill="#000000" stroke="none">
<path d="M1460 1401 c0 -5 12 -11 27 -13 l28 -3 0 -348 c0 -301 -2 -350 -15
-357 -8 -4 -21 -5 -27 -3 -7 3 -13 0 -13 -6 0 -7 49 -11 151 -11 100 0 148 3
144 10 -4 6 -12 10 -18 9 -36 -4 -36 -5 -36 314 0 171 -1 336 -1 365 l0 52
-120 0 c-68 0 -120 -4 -120 -9z"/>
<path d="M1770 1400 c0 -5 14 -10 30 -10 l30 0 0 -359 0 -358 -25 5 c-15 2
-25 0 -25 -7 0 -8 45 -11 146 -11 102 0 143 3 138 11 -3 6 -15 9 -25 6 -16 -4
-19 1 -20 26 0 18 0 184 -1 370 l-1 337 -123 0 c-76 0 -124 -4 -124 -10z"/>
<path d="M10 1351 c0 -5 10 -11 22 -13 24 -3 21 3 194 -476 l77 -213 46 3 45
3 63 215 c34 118 63 217 63 220 1 3 34 -94 74 -215 l73 -220 46 -3 c37 -2 46
0 51 15 10 32 176 662 176 668 0 3 16 5 35 5 19 0 35 5 35 10 0 6 -40 10 -100
10 -60 0 -100 -4 -100 -10 0 -5 23 -10 51 -10 37 0 50 -4 47 -12 -3 -7 -29
-109 -59 -225 -29 -117 -56 -213 -60 -213 -4 0 -11 10 -14 23 -15 49 -89 286
-111 352 l-23 70 29 3 c17 2 30 7 30 13 0 5 -65 9 -155 9 -97 0 -155 -4 -155
-10 0 -5 13 -10 28 -10 28 0 30 -4 58 -97 l30 -98 -40 -138 c-23 -81 -42 -133
-47 -125 -4 7 -41 113 -82 236 l-76 222 35 0 c19 0 34 5 34 10 0 6 -60 10
-160 10 -92 0 -160 -4 -160 -9z"/>
<path d="M1139 1136 c-132 -28 -190 -106 -186 -251 3 -101 33 -160 105 -202
43 -26 56 -28 147 -28 80 0 106 4 131 19 32 19 84 89 84 113 0 22 -17 15 -24
-9 -13 -51 -78 -98 -136 -98 -74 0 -108 49 -114 166 l-4 70 126 -1 c168 -1
164 -2 156 49 -8 58 -31 107 -61 133 -48 42 -137 57 -224 39z m96 -44 c12 -43
14 -141 4 -148 -21 -12 -88 -11 -93 2 -6 15 1 119 10 147 6 20 42 37 61 30 6
-2 14 -16 18 -31z"/>
</g>
</svg>
